<svg width="32" height="32" viewBox="0 0 32 32" fill="none" xmlns="http://www.w3.org/2000/svg">
<path d="M22.0037 17.9517C22.0037 19.1816 21.5151 20.3611 20.6454 21.2308C19.7757 22.1005 18.5961 22.5891 17.3662 22.5891" stroke="white" stroke-width="2" stroke-linecap="round" stroke-linejoin="round"/>
<path d="M11.1833 25.6378C12.9303 27.2047 15.2081 28.0484 17.5543 27.9976C22.5279 27.8994 26.5714 23.8307 26.6406 18.8567C26.6581 17.6277 26.4311 16.4075 25.9729 15.267C25.5147 14.1265 24.8344 13.0884 23.9715 12.2131C23.1086 11.3378 22.0803 10.6428 20.9464 10.1684C19.8126 9.69401 18.5957 9.44971 17.3666 9.44971H16.5937V12.5413L6.5459 18.7246L7.87792 20.5715C8.13193 20.9232 8.47943 21.1966 8.88099 21.3608C9.28254 21.525 9.72208 21.5734 10.1497 21.5005C11.8373 21.2148 14.7931 21.045 17.3666 22.5891L17.3666 22.5891L13.9625 27.3549" stroke="white" stroke-width="2" stroke-linecap="round" stroke-linejoin="round"/>
<path d="M16.9797 17.1791C17.62 17.1791 18.139 16.66 18.139 16.0197C18.139 15.3794 17.62 14.8604 16.9797 14.8604C16.3394 14.8604 15.8203 15.3794 15.8203 16.0197C15.8203 16.66 16.3394 17.1791 16.9797 17.1791Z" fill="white"/>
<path d="M16.4981 9.484L5 8.88867L13.7604 14.0834" stroke="white" stroke-width="2" stroke-linecap="round" stroke-linejoin="round"/>
</svg>
