<svg width="33" height="34" viewBox="0 0 33 34" fill="none" xmlns="http://www.w3.org/2000/svg">
<g filter="url(#filter0_d_1533_1035)">
<path d="M16.0003 17.3327C18.9458 17.3327 21.3337 14.9449 21.3337 11.9993C21.3337 9.05383 18.9458 6.66602 16.0003 6.66602C13.0548 6.66602 10.667 9.05383 10.667 11.9993C10.667 14.9449 13.0548 17.3327 16.0003 17.3327Z" fill="#6B53FF"/>
<path d="M6.66699 23.9993C6.66699 21.0538 9.05481 18.666 12.0003 18.666H20.0003C22.9458 18.666 25.3337 21.0538 25.3337 23.9993V23.9993C25.3337 25.4721 24.1398 26.666 22.667 26.666H9.33366C7.8609 26.666 6.66699 25.4721 6.66699 23.9993V23.9993Z" fill="#6B53FF"/>
</g>
<defs>
<filter id="filter0_d_1533_1035" x="1.66699" y="1.66602" width="30.6665" height="32" filterUnits="userSpaceOnUse" color-interpolation-filters="sRGB">
<feFlood flood-opacity="0" result="BackgroundImageFix"/>
<feColorMatrix in="SourceAlpha" type="matrix" values="0 0 0 0 0 0 0 0 0 0 0 0 0 0 0 0 0 0 127 0" result="hardAlpha"/>
<feOffset dx="1" dy="1"/>
<feGaussianBlur stdDeviation="3"/>
<feColorMatrix type="matrix" values="0 0 0 0 0.677326 0 0 0 0 0.625 0 0 0 0 1 0 0 0 1 0"/>
<feBlend mode="normal" in2="BackgroundImageFix" result="effect1_dropShadow_1533_1035"/>
<feBlend mode="normal" in="SourceGraphic" in2="effect1_dropShadow_1533_1035" result="shape"/>
</filter>
</defs>
</svg>
