<svg width="18" height="17" viewBox="0 0 18 17" fill="none" xmlns="http://www.w3.org/2000/svg">
<path d="M6.75397 7.26727C6.66801 7.50381 6.8432 7.75387 7.09488 7.75387C7.34697 7.75387 7.52219 7.50305 7.43545 7.26635C7.31904 6.94866 6.86952 6.94927 6.75397 7.26727Z" fill="black"/>
<path d="M8.99842 0.294434C4.03063 0.294434 0 3.35346 0 7.12709C0 8.58836 0.603507 9.94176 1.63171 11.0527C2.88515 12.4071 3.67423 14.2392 3.30443 16.0471C3.29561 16.0903 3.29746 16.084 3.30322 16.1276C3.30937 16.1742 3.32862 16.234 3.38417 16.2665C3.5144 16.3374 3.67258 16.26 3.8033 16.19C4.23807 15.9572 5.22918 15.3123 6.07251 14.7522C6.9314 14.1818 7.96736 13.9681 8.99842 13.9681C13.9705 13.9681 17.9968 10.9091 17.9968 7.13545C17.9968 3.35346 13.9705 0.294434 8.99842 0.294434Z" fill="black"/>
</svg>
