<svg width="15" height="26" viewBox="0 0 15 26" fill="none" xmlns="http://www.w3.org/2000/svg">
<path d="M13.4683 8.66091L1.76127 13.5958V3.57529L13.4683 8.66091Z" fill="#6B53FF"/>
<path d="M0.468262 24.2945L0.468259 25.2945L2.46826 25.2945L2.46826 24.2945L0.468262 24.2945ZM2.46832 1.29444C2.46832 0.742151 2.02061 0.294435 1.46832 0.294434C0.916039 0.294432 0.468322 0.742146 0.468321 1.29443L2.46832 1.29444ZM1.76127 13.5958H0.761267C0.761267 13.9309 0.929097 14.2437 1.20829 14.429C1.48748 14.6143 1.84093 14.6475 2.1497 14.5173L1.76127 13.5958ZM13.4683 8.66091L13.8567 9.58239C14.2255 9.42693 14.4661 9.06656 14.4682 8.66635C14.4704 8.26614 14.2338 7.90318 13.8667 7.74372L13.4683 8.66091ZM1.76127 3.57529L2.1597 2.6581C1.85059 2.52382 1.49464 2.55427 1.21283 2.7391C0.931021 2.92393 0.761267 3.23828 0.761267 3.57529H1.76127ZM2.46826 24.2945L2.46832 1.29444L0.468321 1.29443L0.468262 24.2945L2.46826 24.2945ZM2.1497 14.5173L13.8567 9.58239L13.0798 7.73943L1.37283 12.6744L2.1497 14.5173ZM13.8667 7.74372L2.1597 2.6581L1.36283 4.49249L13.0698 9.57811L13.8667 7.74372ZM0.761267 3.57529V13.5958H2.76127V3.57529H0.761267Z" fill="#6B53FF"/>
</svg>
